<?xml version="1.0" encoding="UTF-8" standalone="no"?>
<!DOCTYPE svg PUBLIC "-//W3C//DTD SVG 20010904//EN"
              "http://www.w3.org/TR/2001/REC-SVG-20010904/DTD/svg10.dtd">

<svg xmlns="http://www.w3.org/2000/svg"
     width="11.9444in" height="15.2083in"
     viewBox="0 0 860 1095">
  <path id="Selection"
        fill="none" stroke="black" stroke-width="1"
        d="M 393.00,41.00
           C 396.24,45.42 393.90,50.58 394.02,56.00
             394.13,61.61 396.34,66.86 398.45,72.00
             398.45,72.00 405.39,85.00 405.39,85.00
             407.72,90.79 406.61,95.19 410.94,100.91
             416.47,108.21 424.00,110.39 430.79,120.00
             430.79,120.00 443.44,140.00 443.44,140.00
             453.52,154.30 470.21,170.03 489.00,168.96
             500.47,168.30 500.81,156.71 509.00,152.00
             509.00,152.00 509.82,173.00 509.82,173.00
             509.82,173.00 507.04,194.00 507.04,194.00
             506.77,200.79 508.24,203.13 509.00,209.00
             509.00,209.00 509.00,220.00 509.00,220.00
             509.00,220.00 512.94,243.00 512.94,243.00
             512.94,243.00 512.94,253.00 512.94,253.00
             514.92,271.29 520.54,298.81 530.90,314.00
             535.98,321.45 547.71,330.63 557.00,331.28
             561.12,331.56 567.28,328.07 571.00,326.26
             592.16,315.97 586.66,317.36 604.00,305.67
             622.33,293.31 639.80,279.56 660.00,270.31
             679.91,261.19 682.58,266.02 706.00,253.75
             719.56,246.64 727.61,237.09 738.99,227.63
             741.63,225.43 746.81,218.45 750.69,220.23
             754.57,222.02 752.16,229.95 751.37,233.00
             751.37,233.00 736.81,270.00 736.81,270.00
             735.12,277.41 736.45,279.20 736.81,286.00
             736.81,286.00 736.81,301.00 736.81,301.00
             737.27,305.88 738.06,306.80 739.22,311.00
             740.59,315.99 741.99,326.73 742.00,332.00
             742.00,332.00 742.00,352.00 742.00,352.00
             741.85,362.77 737.78,359.91 739.10,373.00
             739.56,377.56 741.37,379.68 742.49,384.00
             744.35,391.21 746.52,399.09 754.00,402.57
             758.36,404.60 768.84,404.00 774.00,404.00
             769.24,413.58 752.95,418.02 745.02,425.18
             738.88,430.72 739.96,432.53 736.39,438.00
             736.39,438.00 717.58,467.00 717.58,467.00
             717.58,467.00 712.49,473.74 712.49,473.74
             708.54,477.93 704.84,479.28 702.56,486.00
             701.69,488.53 702.04,491.33 701.71,494.00
             701.08,499.02 699.02,503.98 700.82,509.00
             700.82,509.00 708.24,522.00 708.24,522.00
             710.41,527.34 709.89,533.39 715.11,537.01
             719.42,540.01 738.20,544.89 745.98,550.63
             754.37,556.82 754.32,568.78 765.00,569.77
             769.59,570.20 776.20,567.34 781.00,566.46
             781.00,566.46 808.00,562.88 808.00,562.88
             808.00,562.88 829.00,557.00 829.00,557.00
             821.48,566.64 809.22,572.26 799.00,578.46
             792.36,582.50 785.10,588.03 778.00,591.13
             767.45,595.73 762.41,592.56 757.28,597.42
             754.29,600.24 754.10,604.29 752.96,608.00
             751.53,612.67 748.83,618.01 746.02,622.00
             739.55,631.19 736.18,631.00 729.42,636.90
             722.45,642.98 716.38,650.23 710.09,657.00
             710.09,657.00 694.79,675.91 694.79,675.91
             689.86,679.21 685.93,676.61 682.00,678.26
             678.40,679.77 675.82,683.76 670.00,686.02
             660.57,689.69 649.84,690.31 646.00,691.68
             641.08,693.44 628.83,701.81 624.00,704.91
             616.28,709.87 608.27,712.66 603.21,721.00
             600.19,725.98 598.27,738.99 598.04,745.00
             597.74,752.70 600.00,759.19 605.21,764.96
             608.18,768.25 610.70,768.99 613.00,773.00
             601.38,770.66 599.84,768.30 590.00,763.26
             590.00,763.26 570.00,754.48 570.00,754.48
             570.00,754.48 558.00,746.67 558.00,746.67
             558.00,746.67 544.00,740.21 544.00,740.21
             544.00,740.21 531.00,732.13 531.00,732.13
             525.93,729.52 522.50,729.08 517.00,725.40
             517.00,725.40 498.00,711.93 498.00,711.93
             498.00,711.93 480.00,703.19 480.00,703.19
             472.77,699.58 469.47,696.33 461.00,695.00
             461.00,695.00 457.20,722.00 457.20,722.00
             457.20,722.00 453.42,737.00 453.42,737.00
             453.42,737.00 446.43,774.00 446.43,774.00
             438.66,826.36 431.99,879.26 420.58,931.00
             420.58,931.00 412.63,963.00 412.63,963.00
             410.72,970.61 408.15,978.13 404.33,985.00
             400.90,991.19 397.46,994.33 394.61,1001.00
             392.08,1006.95 385.87,1018.79 379.00,1020.26
             374.82,1021.15 372.32,1016.17 369.58,1015.78
             366.25,1015.17 361.31,1022.15 357.56,1015.78
             356.65,1014.33 355.61,1010.79 355.32,1009.00
             352.56,991.90 380.16,986.60 389.96,977.79
             395.79,972.55 403.40,955.09 405.80,947.28
             405.80,947.28 407.44,940.00 407.44,940.00
             414.57,912.92 418.46,885.51 423.42,858.00
             423.42,858.00 438.15,761.00 438.15,761.00
             438.15,761.00 443.00,725.00 443.00,725.00
             443.00,725.00 443.00,697.00 443.00,697.00
             436.00,702.57 434.68,707.31 429.49,714.00
             429.49,714.00 417.89,727.04 417.89,727.04
             417.89,727.04 400.83,749.00 400.83,749.00
             400.83,749.00 391.09,758.99 391.09,758.99
             373.84,777.14 377.43,773.81 357.00,788.04
             357.00,788.04 347.00,795.45 347.00,795.45
             347.00,795.45 329.00,804.87 329.00,804.87
             320.26,809.94 310.63,821.24 302.00,823.00
             304.28,814.99 308.60,811.03 308.96,802.00
             309.37,791.75 303.39,779.55 295.00,773.65
             295.00,773.65 283.00,767.88 283.00,767.88
             279.68,766.20 276.51,763.53 273.00,762.57
             273.00,762.57 263.00,761.68 263.00,761.68
             257.43,760.75 252.91,757.41 249.00,758.64
             243.54,760.36 242.14,766.63 238.78,769.49
             236.11,771.77 219.03,778.29 215.00,779.19
             213.19,779.59 208.99,780.55 207.30,779.97
             202.81,778.46 208.21,772.98 204.88,766.96
             201.82,761.42 192.52,755.34 187.00,752.09
             187.00,752.09 174.00,745.66 174.00,745.66
             174.00,745.66 165.00,740.05 165.00,740.05
             160.68,737.99 156.19,738.01 147.00,732.55
             147.00,732.55 133.17,723.61 133.17,723.61
             130.33,721.16 128.75,718.19 125.00,716.74
             125.00,716.74 104.00,714.49 104.00,714.49
             91.05,711.83 88.83,707.38 84.00,706.11
             84.00,706.11 74.00,706.11 74.00,706.11
             69.26,705.58 64.78,703.84 60.00,704.18
             60.00,704.18 50.00,705.72 50.00,705.72
             42.48,706.73 39.60,707.00 32.00,707.00
             32.00,707.00 32.00,705.00 32.00,705.00
             39.83,704.82 47.35,701.99 54.00,697.94
             56.92,696.16 65.51,690.35 68.00,689.56
             69.97,688.93 71.97,689.06 74.00,688.91
             74.00,688.91 81.00,688.09 81.00,688.09
             88.26,687.59 91.77,689.25 97.96,683.79
             103.44,678.96 107.58,671.17 111.42,665.00
             116.24,657.26 122.65,648.51 129.09,642.09
             140.20,631.00 148.76,632.33 157.55,620.00
             161.66,614.24 162.16,614.06 162.05,607.00
             161.99,603.00 162.84,594.89 163.67,591.00
             164.54,586.89 166.02,584.35 165.03,580.00
             163.41,572.88 158.93,571.61 154.70,566.71
             151.27,562.74 150.22,558.74 147.51,555.00
             147.51,555.00 135.41,541.00 135.41,541.00
             128.88,532.30 132.74,526.73 128.91,520.00
             124.60,512.40 116.64,509.01 111.18,503.70
             111.18,503.70 103.25,494.00 103.25,494.00
             99.35,489.38 98.87,489.53 95.17,485.83
             93.46,484.13 91.83,481.96 89.91,480.56
             87.37,478.71 83.08,477.79 80.00,476.55
             80.00,476.55 56.00,465.00 56.00,465.00
             64.53,461.79 75.31,461.35 82.91,455.89
             86.41,453.38 87.58,450.94 88.98,447.00
             93.85,433.31 88.57,424.79 85.68,412.00
             84.36,406.16 85.85,402.60 83.55,398.00
             80.28,391.46 73.95,389.55 73.10,381.00
             71.81,368.00 75.63,366.86 77.51,360.00
             78.39,356.77 79.08,346.60 78.99,343.00
             78.80,335.68 76.57,334.05 75.22,327.00
             75.22,327.00 75.22,309.00 75.22,309.00
             74.81,298.11 68.94,299.36 62.93,284.00
             60.22,277.10 61.68,273.61 59.43,269.01
             57.02,264.08 53.87,264.14 51.00,259.00
             70.76,259.45 83.02,278.86 99.00,287.69
             103.15,289.98 111.63,294.26 116.00,295.56
             128.20,299.20 126.52,295.02 146.00,303.86
             157.01,308.86 168.79,319.52 179.00,326.56
             179.00,326.56 197.00,336.44 197.00,336.44
             214.02,347.33 224.20,367.26 244.00,374.30
             254.39,378.00 256.52,374.78 265.00,369.61
             276.31,362.73 278.37,361.19 286.51,350.00
             288.78,346.89 293.24,339.71 293.76,336.00
             294.32,332.07 292.64,328.79 292.01,325.00
             292.01,325.00 292.01,316.00 292.01,316.00
             292.01,316.00 290.51,304.00 290.51,304.00
             289.98,299.42 291.74,295.23 290.51,288.00
             290.51,288.00 288.47,279.00 288.47,279.00
             285.71,267.89 285.05,265.38 285.00,254.00
             284.94,242.54 278.15,233.49 278.00,217.00
             285.02,220.00 290.66,227.69 299.00,226.63
             307.04,225.62 319.77,216.82 324.01,210.00
             325.91,206.93 327.13,202.47 328.34,199.00
             331.34,190.46 335.20,182.02 336.88,173.00
             336.88,173.00 336.88,164.00 336.88,164.00
             337.46,158.63 340.40,147.02 342.45,142.00
             346.40,132.34 352.96,128.74 359.96,121.91
             364.11,117.87 368.90,111.11 371.69,106.00
             380.09,90.61 378.38,77.48 382.92,61.00
             384.96,53.58 389.97,47.99 393.00,41.00 Z" />
</svg>
